<mxfile host="app.diagrams.net" modified="2023-05-26T04:48:33.050Z" agent="Mozilla/5.0 (Windows NT 10.0; Win64; x64) AppleWebKit/537.36 (KHTML, like Gecko) Chrome/113.0.0.0 Safari/537.36" version="21.1.6" etag="W065YB8Av5oxnVEwlV6G" type="github">
  <diagram name="페이지-1" id="dPyjDUGIB9Z2msVybzvO">
    <mxGraphModel>
      <root>
        <mxCell id="0" />
        <mxCell id="1" parent="0" />
      </root>
    </mxGraphModel>
  </diagram>
</mxfile>
